# xmcd
#
# Track frame offsets: 
#        150
#        27535
#        49308
#        76519
#        103258
#        137261
#        160043
#        185747
#        210756
#        243374
#        277548
#
# Disc length: 4099 seconds
#
# Revision: 0
# Processed by: cddbd v1.5.2PL0 Copyright (c) Steve Scherf et al.
# Submitted via: ExactAudioCopy v0.95b4
#
DISCID=8210010b
DTITLE=Bill Doggett - Am I Blue
DYEAR=1978
DGENRE=Blues
TTITLE0=Guess Who
TTITLE1=Anahuac Breakdown
TTITLE2=Time On My Hands
TTITLE3=Am I Blue
TTITLE4=Please Send Me Someone To Love
TTITLE5=Grease Bowl
TTITLE6=When Your Lover Has Gone
TTITLE7=This Bitter Earth
TTITLE8=Night Train
TTITLE9=Where Are You
TTITLE10=It Could Happen To You
EXTD=
EXTT0=
EXTT1=
EXTT2=
EXTT3=
EXTT4=
EXTT5=
EXTT6=
EXTT7=
EXTT8=
EXTT9=
EXTT10=
PLAYORDER=
